{ "workers_status": [{ "id": "W0", "name": "Worker-W0", "idle": false, "paused": false, "start_time": "1643113421.5881643", "current_file": "Test_File1.mkv", "current_task": 640, "worker_log_tail": ["frame=91344 fps= 17 q=-0.0 size= 2034944kB time=01:03:29.94 bitrate=4375.5kbits/s speed=0.715x    \n", "frame=91354 fps= 17 q=-0.0 size= 2034944kB time=01:03:30.36 bitrate=4375.0kbits/s speed=0.715x    \n", "frame=91363 fps= 17 q=-0.0 size= 2034944kB time=01:03:30.73 bitrate=4374.6kbits/s speed=0.715x    \n", "frame=91372 fps= 17 q=-0.0 size= 2034944kB time=01:03:31.11 bitrate=4374.1kbits/s speed=0.715x    \n", "frame=91381 fps= 17 q=-0.0 size= 2034944kB time=01:03:31.47 bitrate=4373.7kbits/s speed=0.715x    \n", "frame=91390 fps= 17 q=-0.0 size= 2037504kB time=01:03:31.86 bitrate=4378.8kbits/s speed=0.715x    \n", "frame=91399 fps= 17 q=-0.0 size= 2037504kB time=01:03:32.24 bitrate=4378.3kbits/s speed=0.715x    \n", "frame=91408 fps= 17 q=-0.0 size= 2037504kB time=01:03:32.60 bitrate=4377.9kbits/s speed=0.715x    \n", "frame=91417 fps= 17 q=-0.0 size= 2037504kB time=01:03:32.99 bitrate=4377.5kbits/s speed=0.715x    \n", "frame=91426 fps= 17 q=-0.0 size= 2037504kB time=01:03:33.35 bitrate=4377.0kbits/s speed=0.715x    \n", "frame=91435 fps= 17 q=-0.0 size= 2037504kB time=01:03:33.73 bitrate=4376.6kbits/s speed=0.715x    \n", "frame=91444 fps= 17 q=-0.0 size= 2037504kB time=01:03:34.12 bitrate=4376.2kbits/s speed=0.715x    \n", "frame=91453 fps= 17 q=-0.0 size= 2037504kB time=01:03:34.48 bitrate=4375.8kbits/s speed=0.715x    \n", "frame=91462 fps= 17 q=-0.0 size= 2037504kB time=01:03:34.86 bitrate=4375.3kbits/s speed=0.715x    \n", "frame=91471 fps= 17 q=-0.0 size= 2037504kB time=01:03:35.23 bitrate=4374.9kbits/s speed=0.715x    \n", "frame=91480 fps= 17 q=-0.0 size= 2037504kB time=01:03:35.61 bitrate=4374.5kbits/s speed=0.715x    \n", "frame=91489 fps= 17 q=-0.0 size= 2037504kB time=01:03:36.00 bitrate=4374.0kbits/s speed=0.715x    \n", "frame=91498 fps= 17 q=-0.0 size= 2039040kB time=01:03:36.36 bitrate=4376.9kbits/s speed=0.715x    \n", "frame=91507 fps= 17 q=-0.0 size= 2039040kB time=01:03:36.74 bitrate=4376.5kbits/s speed=0.715x    \n"], "runners_info": { "file_size_metrics": { "plugin_id": "file_size_metrics", "status": "complete", "name": "File Size Metrics Data Panel", "author": "Josh.5", "version": "0.0.7", "icon": "https://raw.githubusercontent.com/Josh5/unmanic.plugin.file_size_metrics/master/icon.png", "description": "Aggregate changes in file size metrics for processed files and add a data panel for displaying the results.", "success": true }, "remove_all_subtitles": { "plugin_id": "remove_all_subtitles", "status": "complete", "name": "Remove all subtitle streams", "author": "Josh.5", "version": "0.0.2", "icon": "https://raw.githubusercontent.com/Josh5/unmanic.plugin.remove_all_subtitles/master/icon.png", "description": "Removes any subtitle streams from video files.", "success": true }, "remove_image_subtitles": { "plugin_id": "remove_image_subtitles", "status": "complete", "name": "Remove image subtitle streams", "author": "Josh.5", "version": "0.0.2", "icon": "https://raw.githubusercontent.com/Josh5/unmanic.plugin.remove_image_subtitles/master/icon.png", "description": "Removes any image subtitle streams from video files.", "success": true }, "strip_image_streams": { "plugin_id": "strip_image_streams", "status": "complete", "name": "Strip all image streams from file", "author": "Josh.5", "version": "0.0.4", "icon": "https://raw.githubusercontent.com/Josh5/unmanic.plugin.strip_image_streams/master/icon.png", "description": "Removes all image streams (if any exist) from video streams.", "success": true }, "encoder_video_hevc_qsv": { "plugin_id": "encoder_video_hevc_qsv", "status": "in_progress", "name": "Video Encoder H265/HEVC - hevc_qsv (Intel)", "author": "Josh.5", "version": "0.0.2", "icon": "https://raw.githubusercontent.com/Josh5/unmanic.plugin.encoder_video_hevc_qsv/master/icon.png", "description": "Ensure all video streams are encoded with the H265/HEVC codec using the hevc_qsv encoder.", "success": false }, "encoder_audio_ac3": { "plugin_id": "encoder_audio_ac3", "status": "pending", "name": "Audio Encoder AC3", "author": "Josh.5", "version": "0.0.2", "icon": "https://raw.githubusercontent.com/Josh5/unmanic.plugin.encoder_audio_ac3/master/icon.png", "description": "Ensure all audio streams are encoded with the AC3 codec using the native FFmpeg ac3 encoder." }, "reject_files_larger_than_original": { "plugin_id": "reject_files_larger_than_original", "status": "pending", "name": "Reject File if Larger than Original", "author": "Josh.5", "version": "0.0.2", "icon": "https://raw.githubusercontent.com/Josh5/unmanic.plugin.reject_files_larger_than_original/master/icon.png", "description": "This Plugin will reset the current working file to the original source if the cache file is larger than the original source." } }, "subprocess": { "pid": 139960310421248, "percent": "66", "elapsed": "5338.672609090805" } }, { "id": "W1", "name": "Worker-W1", "idle": false, "paused": false, "start_time": "1643113669.0133715", "current_file": "Test_File2.mkv", "current_task": 638, "worker_log_tail": ["frame=83734 fps= 16 q=-0.0 size= 2388992kB time=00:58:12.54 bitrate=5603.5kbits/s speed=0.688x    \n", "frame=83744 fps= 16 q=-0.0 size= 2388992kB time=00:58:12.97 bitrate=5602.9kbits/s speed=0.688x    \n", "frame=83753 fps= 16 q=-0.0 size= 2388992kB time=00:58:13.33 bitrate=5602.3kbits/s speed=0.688x    \n", "frame=83762 fps= 16 q=-0.0 size= 2388992kB time=00:58:13.71 bitrate=5601.7kbits/s speed=0.688x    \n", "frame=83771 fps= 16 q=-0.0 size= 2388992kB time=00:58:14.10 bitrate=5601.0kbits/s speed=0.688x    \n", "frame=83780 fps= 16 q=-0.0 size= 2388992kB time=00:58:14.46 bitrate=5600.5kbits/s speed=0.688x    \n", "frame=83789 fps= 16 q=-0.0 size= 2388992kB time=00:58:14.84 bitrate=5599.8kbits/s speed=0.688x    \n", "frame=83798 fps= 16 q=-0.0 size= 2388992kB time=00:58:15.21 bitrate=5599.3kbits/s speed=0.688x    \n", "frame=83807 fps= 16 q=-0.0 size= 2391296kB time=00:58:15.59 bitrate=5604.1kbits/s speed=0.688x    \n", "frame=83817 fps= 16 q=-0.0 size= 2391296kB time=00:58:15.99 bitrate=5603.4kbits/s speed=0.688x    \n", "frame=83826 fps= 16 q=-0.0 size= 2391296kB time=00:58:16.38 bitrate=5602.8kbits/s speed=0.688x    \n", "frame=83835 fps= 16 q=-0.0 size= 2391296kB time=00:58:16.74 bitrate=5602.2kbits/s speed=0.688x    \n", "frame=83844 fps= 16 q=-0.0 size= 2392064kB time=00:58:17.12 bitrate=5603.4kbits/s speed=0.688x    \n", "frame=83853 fps= 16 q=-0.0 size= 2392064kB time=00:58:17.51 bitrate=5602.8kbits/s speed=0.688x    \n", "frame=83862 fps= 16 q=-0.0 size= 2392064kB time=00:58:17.87 bitrate=5602.2kbits/s speed=0.688x    \n", "frame=83871 fps= 16 q=-0.0 size= 2392064kB time=00:58:18.26 bitrate=5601.6kbits/s speed=0.688x    \n", "frame=83880 fps= 16 q=-0.0 size= 2392064kB time=00:58:18.64 bitrate=5601.0kbits/s speed=0.688x    \n", "frame=83889 fps= 16 q=-0.0 size= 2392064kB time=00:58:19.00 bitrate=5600.4kbits/s speed=0.688x    \n", "frame=83898 fps= 16 q=-0.0 size= 2392064kB time=00:58:19.39 bitrate=5599.8kbits/s speed=0.688x    \n"], "runners_info": { "file_size_metrics": { "plugin_id": "file_size_metrics", "status": "complete", "name": "File Size Metrics Data Panel", "author": "Josh.5", "version": "0.0.7", "icon": "https://raw.githubusercontent.com/Josh5/unmanic.plugin.file_size_metrics/master/icon.png", "description": "Aggregate changes in file size metrics for processed files and add a data panel for displaying the results.", "success": true }, "remove_all_subtitles": { "plugin_id": "remove_all_subtitles", "status": "complete", "name": "Remove all subtitle streams", "author": "Josh.5", "version": "0.0.2", "icon": "https://raw.githubusercontent.com/Josh5/unmanic.plugin.remove_all_subtitles/master/icon.png", "description": "Removes any subtitle streams from video files.", "success": true }, "remove_image_subtitles": { "plugin_id": "remove_image_subtitles", "status": "complete", "name": "Remove image subtitle streams", "author": "Josh.5", "version": "0.0.2", "icon": "https://raw.githubusercontent.com/Josh5/unmanic.plugin.remove_image_subtitles/master/icon.png", "description": "Removes any image subtitle streams from video files.", "success": true }, "strip_image_streams": { "plugin_id": "strip_image_streams", "status": "complete", "name": "Strip all image streams from file", "author": "Josh.5", "version": "0.0.4", "icon": "https://raw.githubusercontent.com/Josh5/unmanic.plugin.strip_image_streams/master/icon.png", "description": "Removes all image streams (if any exist) from video streams.", "success": true }, "encoder_video_hevc_qsv": { "plugin_id": "encoder_video_hevc_qsv", "status": "in_progress", "name": "Video Encoder H265/HEVC - hevc_qsv (Intel)", "author": "Josh.5", "version": "0.0.2", "icon": "https://raw.githubusercontent.com/Josh5/unmanic.plugin.encoder_video_hevc_qsv/master/icon.png", "description": "Ensure all video streams are encoded with the H265/HEVC codec using the hevc_qsv encoder.", "success": false }, "encoder_audio_ac3": { "plugin_id": "encoder_audio_ac3", "status": "pending", "name": "Audio Encoder AC3", "author": "Josh.5", "version": "0.0.2", "icon": "https://raw.githubusercontent.com/Josh5/unmanic.plugin.encoder_audio_ac3/master/icon.png", "description": "Ensure all audio streams are encoded with the AC3 codec using the native FFmpeg ac3 encoder." }, "reject_files_larger_than_original": { "plugin_id": "reject_files_larger_than_original", "status": "pending", "name": "Reject File if Larger than Original", "author": "Josh.5", "version": "0.0.2", "icon": "https://raw.githubusercontent.com/Josh5/unmanic.plugin.reject_files_larger_than_original/master/icon.png", "description": "This Plugin will reset the current working file to the original source if the cache file is larger than the original source." } }, "subprocess": { "pid": 139959763728128, "percent": "48", "elapsed": "5090.001509666443" } }, { "id": "W2", "name": "Worker-W2", "idle": false, "paused": false, "start_time": "1643113641.7359476", "current_file": "Test_File3.mkv", "current_task": 639, "worker_log_tail": ["frame=84257 fps= 16 q=-0.0 size= 1636352kB time=00:58:34.36 bitrate=3814.3kbits/s speed=0.688x    \n", "frame=84266 fps= 16 q=-0.0 size= 1636352kB time=00:58:34.73 bitrate=3813.9kbits/s speed=0.688x    \n", "frame=84276 fps= 16 q=-0.0 size= 1636352kB time=00:58:35.15 bitrate=3813.5kbits/s speed=0.688x    \n", "frame=84285 fps= 16 q=-0.0 size= 1636352kB time=00:58:35.52 bitrate=3813.1kbits/s speed=0.688x    \n", "frame=84294 fps= 16 q=-0.0 size= 1636352kB time=00:58:35.90 bitrate=3812.7kbits/s speed=0.688x    \n", "frame=84303 fps= 16 q=-0.0 size= 1637888kB time=00:58:36.26 bitrate=3815.9kbits/s speed=0.688x    \n", "frame=84312 fps= 16 q=-0.0 size= 1637888kB time=00:58:36.65 bitrate=3815.4kbits/s speed=0.688x    \n", "frame=84321 fps= 16 q=-0.0 size= 1637888kB time=00:58:37.03 bitrate=3815.0kbits/s speed=0.688x    \n", "frame=84330 fps= 16 q=-0.0 size= 1637888kB time=00:58:37.39 bitrate=3814.6kbits/s speed=0.688x    \n", "frame=84339 fps= 16 q=-0.0 size= 1638656kB time=00:58:37.78 bitrate=3816.0kbits/s speed=0.688x    \n", "frame=84348 fps= 16 q=-0.0 size= 1638656kB time=00:58:38.14 bitrate=3815.6kbits/s speed=0.688x    \n", "frame=84357 fps= 16 q=-0.0 size= 1638656kB time=00:58:38.52 bitrate=3815.2kbits/s speed=0.688x    \n", "frame=84366 fps= 16 q=-0.0 size= 1638656kB time=00:58:38.91 bitrate=3814.8kbits/s speed=0.688x    \n", "frame=84375 fps= 16 q=-0.0 size= 1638656kB time=00:58:39.27 bitrate=3814.4kbits/s speed=0.688x    \n", "frame=84384 fps= 16 q=-0.0 size= 1638656kB time=00:58:39.65 bitrate=3814.0kbits/s speed=0.688x    \n", "frame=84393 fps= 16 q=-0.0 size= 1638656kB time=00:58:40.02 bitrate=3813.6kbits/s speed=0.688x    \n", "frame=84402 fps= 16 q=-0.0 size= 1638656kB time=00:58:40.40 bitrate=3813.2kbits/s speed=0.688x    \n", "frame=84411 fps= 16 q=-0.0 size= 1638656kB time=00:58:40.78 bitrate=3812.7kbits/s speed=0.688x    \n", "frame=84420 fps= 16 q=-0.0 size= 1638656kB time=00:58:41.15 bitrate=3812.4kbits/s speed=0.688x    \n"], "runners_info": { "file_size_metrics": { "plugin_id": "file_size_metrics", "status": "complete", "name": "File Size Metrics Data Panel", "author": "Josh.5", "version": "0.0.7", "icon": "https://raw.githubusercontent.com/Josh5/unmanic.plugin.file_size_metrics/master/icon.png", "description": "Aggregate changes in file size metrics for processed files and add a data panel for displaying the results.", "success": true }, "remove_all_subtitles": { "plugin_id": "remove_all_subtitles", "status": "complete", "name": "Remove all subtitle streams", "author": "Josh.5", "version": "0.0.2", "icon": "https://raw.githubusercontent.com/Josh5/unmanic.plugin.remove_all_subtitles/master/icon.png", "description": "Removes any subtitle streams from video files.", "success": true }, "remove_image_subtitles": { "plugin_id": "remove_image_subtitles", "status": "complete", "name": "Remove image subtitle streams", "author": "Josh.5", "version": "0.0.2", "icon": "https://raw.githubusercontent.com/Josh5/unmanic.plugin.remove_image_subtitles/master/icon.png", "description": "Removes any image subtitle streams from video files.", "success": true }, "strip_image_streams": { "plugin_id": "strip_image_streams", "status": "complete", "name": "Strip all image streams from file", "author": "Josh.5", "version": "0.0.4", "icon": "https://raw.githubusercontent.com/Josh5/unmanic.plugin.strip_image_streams/master/icon.png", "description": "Removes all image streams (if any exist) from video streams.", "success": true }, "encoder_video_hevc_qsv": { "plugin_id": "encoder_video_hevc_qsv", "status": "in_progress", "name": "Video Encoder H265/HEVC - hevc_qsv (Intel)", "author": "Josh.5", "version": "0.0.2", "icon": "https://raw.githubusercontent.com/Josh5/unmanic.plugin.encoder_video_hevc_qsv/master/icon.png", "description": "Ensure all video streams are encoded with the H265/HEVC codec using the hevc_qsv encoder.", "success": false }, "encoder_audio_ac3": { "plugin_id": "encoder_audio_ac3", "status": "pending", "name": "Audio Encoder AC3", "author": "Josh.5", "version": "0.0.2", "icon": "https://raw.githubusercontent.com/Josh5/unmanic.plugin.encoder_audio_ac3/master/icon.png", "description": "Ensure all audio streams are encoded with the AC3 codec using the native FFmpeg ac3 encoder." }, "reject_files_larger_than_original": { "plugin_id": "reject_files_larger_than_original", "status": "pending", "name": "Reject File if Larger than Original", "author": "Josh.5", "version": "0.0.2", "icon": "https://raw.githubusercontent.com/Josh5/unmanic.plugin.reject_files_larger_than_original/master/icon.png", "description": "This Plugin will reset the current working file to the original source if the cache file is larger than the original source." } }, "subprocess": { "pid": 139959755335424, "percent": "48", "elapsed": "5117.157250404358" } }, { "id": "W3", "name": "Worker-W3", "idle": false, "paused": false, "start_time": "1643113344.0296147", "current_file": "Test_File4.mkv", "current_task": 641, "worker_log_tail": ["frame=92834 fps= 18 q=-0.0 size= 6565120kB time=01:04:32.06 bitrate=13889.6kbits/s speed=0.756x    \n", "frame=92844 fps= 18 q=-0.0 size= 6565120kB time=01:04:32.48 bitrate=13888.1kbits/s speed=0.756x    \n", "frame=92853 fps= 18 q=-0.0 size= 6565120kB time=01:04:32.86 bitrate=13886.7kbits/s speed=0.756x    \n", "frame=92862 fps= 18 q=-0.0 size= 6565120kB time=01:04:33.21 bitrate=13885.5kbits/s speed=0.756x    \n", "frame=92871 fps= 18 q=-0.0 size= 6565120kB time=01:04:33.60 bitrate=13884.1kbits/s speed=0.756x    \n", "frame=92880 fps= 18 q=-0.0 size= 6567168kB time=01:04:33.98 bitrate=13887.1kbits/s speed=0.756x    \n", "frame=92889 fps= 18 q=-0.0 size= 6567168kB time=01:04:34.36 bitrate=13885.7kbits/s speed=0.756x    \n", "frame=92898 fps= 18 q=-0.0 size= 6567168kB time=01:04:34.72 bitrate=13884.4kbits/s speed=0.756x    \n", "frame=92907 fps= 18 q=-0.0 size= 6567168kB time=01:04:35.10 bitrate=13883.0kbits/s speed=0.756x    \n", "frame=92916 fps= 18 q=-0.0 size= 6567168kB time=01:04:35.48 bitrate=13881.7kbits/s speed=0.756x    \n", "frame=92925 fps= 18 q=-0.0 size= 6567168kB time=01:04:35.84 bitrate=13880.4kbits/s speed=0.756x    \n", "frame=92934 fps= 18 q=-0.0 size= 6567168kB time=01:04:36.22 bitrate=13879.0kbits/s speed=0.756x    \n", "frame=92943 fps= 18 q=-0.0 size= 6567168kB time=01:04:36.60 bitrate=13877.7kbits/s speed=0.756x    \n", "frame=92952 fps= 18 q=-0.0 size= 6567168kB time=01:04:36.99 bitrate=13876.3kbits/s speed=0.756x    \n", "frame=92961 fps= 18 q=-0.0 size= 6567168kB time=01:04:37.34 bitrate=13875.0kbits/s speed=0.756x    \n", "frame=92970 fps= 18 q=-0.0 size= 6567168kB time=01:04:37.72 bitrate=13873.6kbits/s speed=0.756x    \n", "frame=92979 fps= 18 q=-0.0 size= 6567168kB time=01:04:38.11 bitrate=13872.3kbits/s speed=0.756x    \n", "frame=92988 fps= 18 q=-0.0 size= 6568960kB time=01:04:38.49 bitrate=13874.7kbits/s speed=0.756x    \n", "frame=92997 fps= 18 q=-0.0 size= 6568960kB time=01:04:38.84 bitrate=13873.4kbits/s speed=0.756x    \n"], "runners_info": { "file_size_metrics": { "plugin_id": "file_size_metrics", "status": "complete", "name": "File Size Metrics Data Panel", "author": "Josh.5", "version": "0.0.7", "icon": "https://raw.githubusercontent.com/Josh5/unmanic.plugin.file_size_metrics/master/icon.png", "description": "Aggregate changes in file size metrics for processed files and add a data panel for displaying the results.", "success": true }, "remove_all_subtitles": { "plugin_id": "remove_all_subtitles", "status": "complete", "name": "Remove all subtitle streams", "author": "Josh.5", "version": "0.0.2", "icon": "https://raw.githubusercontent.com/Josh5/unmanic.plugin.remove_all_subtitles/master/icon.png", "description": "Removes any subtitle streams from video files.", "success": true }, "remove_image_subtitles": { "plugin_id": "remove_image_subtitles", "status": "complete", "name": "Remove image subtitle streams", "author": "Josh.5", "version": "0.0.2", "icon": "https://raw.githubusercontent.com/Josh5/unmanic.plugin.remove_image_subtitles/master/icon.png", "description": "Removes any image subtitle streams from video files.", "success": true }, "strip_image_streams": { "plugin_id": "strip_image_streams", "status": "complete", "name": "Strip all image streams from file", "author": "Josh.5", "version": "0.0.4", "icon": "https://raw.githubusercontent.com/Josh5/unmanic.plugin.strip_image_streams/master/icon.png", "description": "Removes all image streams (if any exist) from video streams.", "success": true }, "encoder_video_hevc_qsv": { "plugin_id": "encoder_video_hevc_qsv", "status": "in_progress", "name": "Video Encoder H265/HEVC - hevc_qsv (Intel)", "author": "Josh.5", "version": "0.0.2", "icon": "https://raw.githubusercontent.com/Josh5/unmanic.plugin.encoder_video_hevc_qsv/master/icon.png", "description": "Ensure all video streams are encoded with the H265/HEVC codec using the hevc_qsv encoder.", "success": false }, "encoder_audio_ac3": { "plugin_id": "encoder_audio_ac3", "status": "pending", "name": "Audio Encoder AC3", "author": "Josh.5", "version": "0.0.2", "icon": "https://raw.githubusercontent.com/Josh5/unmanic.plugin.encoder_audio_ac3/master/icon.png", "description": "Ensure all audio streams are encoded with the AC3 codec using the native FFmpeg ac3 encoder." }, "reject_files_larger_than_original": { "plugin_id": "reject_files_larger_than_original", "status": "pending", "name": "Reject File if Larger than Original", "author": "Josh.5", "version": "0.0.2", "icon": "https://raw.githubusercontent.com/Josh5/unmanic.plugin.reject_files_larger_than_original/master/icon.png", "description": "This Plugin will reset the current working file to the original source if the cache file is larger than the original source." } }, "subprocess": { "pid": 139959746942720, "percent": "79", "elapsed": "5133.1046230793" } }] }